<svg width="711" height="711" viewBox="0 0 711 711" fill="none" xmlns="http://www.w3.org/2000/svg">
<path d="M535.517 151.852H418.547C418.547 151.852 430.141 120.167 447.996 120.167C465.851 120.167 471.424 142.036 471.424 142.036C471.424 142.036 483.465 130.156 493.362 130.156C503.259 130.156 511.859 145.855 511.859 145.855C511.859 145.855 525.838 137.415 535.517 151.852Z" fill="#EBEBEB"/>
<path opacity="0.5" d="M590 185.659H535.368C535.368 185.659 547.57 167.964 557.214 167.964C566.858 167.964 569.679 179.765 569.679 179.765C569.679 179.765 576.468 174.249 582.764 175.178C589.06 176.106 590 185.659 590 185.659Z" fill="#EBEBEB"/>
<path opacity="0.5" d="M479.165 251.495H424.499C424.499 251.495 436.712 233.8 446.345 233.8C455.977 233.8 458.81 245.589 458.81 245.589C458.81 245.589 465.599 240.085 471.895 241.071C478.19 242.057 479.165 251.495 479.165 251.495Z" fill="#EBEBEB"/>
<path d="M235.443 265.096H129C129 265.096 143.541 232.539 159.137 230.463C174.733 228.388 182.198 254.648 182.198 254.648C182.198 254.648 192.267 245.383 200.18 245.383C208.092 245.383 214.193 257.584 214.193 257.584C214.193 257.584 230.019 249.27 235.443 265.096Z" fill="#EBEBEB"/>
<path opacity="0.5" d="M284.077 169.421H212.141C212.141 169.421 224.503 145.832 237.943 145.488C251.383 145.144 258.355 163.343 258.355 163.343C258.355 163.343 279.226 146.612 284.077 169.421Z" fill="#EBEBEB"/>
<path d="M399.648 281.632H356.897V505.756H399.648V281.632Z" fill="#DBDBDB"/>
<path d="M371.851 288.914H363.537V297.469H371.851V288.914Z" fill="#EBEBEB"/>
<path d="M382.481 288.914H374.167V297.469H382.481V288.914Z" fill="#EBEBEB"/>
<path d="M371.851 303.443H363.537V311.998H371.851V303.443Z" fill="#EBEBEB"/>
<path d="M382.481 303.443H374.167V311.998H382.481V303.443Z" fill="#EBEBEB"/>
<path d="M371.851 317.973H363.537V326.528H371.851V317.973Z" fill="#EBEBEB"/>
<path d="M382.481 317.973H374.167V326.528H382.481V317.973Z" fill="#EBEBEB"/>
<path d="M371.851 332.502H363.537V341.057H371.851V332.502Z" fill="#EBEBEB"/>
<path d="M382.481 332.502H374.167V341.057H382.481V332.502Z" fill="#EBEBEB"/>
<path d="M371.851 347.032H363.537V355.587H371.851V347.032Z" fill="#EBEBEB"/>
<path d="M382.481 347.032H374.167V355.587H382.481V347.032Z" fill="#EBEBEB"/>
<path d="M371.851 361.561H363.537V370.116H371.851V361.561Z" fill="#EBEBEB"/>
<path d="M382.481 361.561H374.167V370.116H382.481V361.561Z" fill="#EBEBEB"/>
<path d="M371.851 376.091H363.537V384.646H371.851V376.091Z" fill="#EBEBEB"/>
<path d="M382.481 376.091H374.167V384.646H382.481V376.091Z" fill="#EBEBEB"/>
<path d="M371.851 390.621H363.537V399.175H371.851V390.621Z" fill="#EBEBEB"/>
<path d="M382.481 390.621H374.167V399.175H382.481V390.621Z" fill="#EBEBEB"/>
<path d="M371.851 405.15H363.537V413.705H371.851V405.15Z" fill="#EBEBEB"/>
<path d="M382.481 405.15H374.167V413.705H382.481V405.15Z" fill="#EBEBEB"/>
<path d="M371.851 419.68H363.537V428.234H371.851V419.68Z" fill="#EBEBEB"/>
<path d="M382.481 419.68H374.167V428.234H382.481V419.68Z" fill="#EBEBEB"/>
<path d="M371.851 434.209H363.537V442.764H371.851V434.209Z" fill="#EBEBEB"/>
<path d="M382.481 434.209H374.167V442.764H382.481V434.209Z" fill="#EBEBEB"/>
<path d="M371.851 448.739H363.537V457.294H371.851V448.739Z" fill="#EBEBEB"/>
<path d="M382.481 448.739H374.167V457.294H382.481V448.739Z" fill="#EBEBEB"/>
<path d="M371.851 463.268H363.537V471.823H371.851V463.268Z" fill="#EBEBEB"/>
<path d="M382.481 463.268H374.167V471.823H382.481V463.268Z" fill="#EBEBEB"/>
<path d="M371.851 477.798H363.537V486.353H371.851V477.798Z" fill="#EBEBEB"/>
<path d="M384.694 486.341H393.009V477.786H384.694V486.341Z" fill="#EBEBEB"/>
<path d="M384.694 471.812H393.009V463.257H384.694V471.812Z" fill="#EBEBEB"/>
<path d="M384.694 457.282H393.009V448.727H384.694V457.282Z" fill="#EBEBEB"/>
<path d="M384.694 442.764H393.009V434.209H384.694V442.764Z" fill="#EBEBEB"/>
<path d="M384.694 428.235H393.009V419.68H384.694V428.235Z" fill="#EBEBEB"/>
<path d="M384.694 413.705H393.009V405.15H384.694V413.705Z" fill="#EBEBEB"/>
<path d="M384.694 399.175H393.009V390.621H384.694V399.175Z" fill="#EBEBEB"/>
<path d="M384.694 384.646H393.009V376.091H384.694V384.646Z" fill="#EBEBEB"/>
<path d="M384.694 370.116H393.009V361.562H384.694V370.116Z" fill="#EBEBEB"/>
<path d="M384.694 355.587H393.009V347.032H384.694V355.587Z" fill="#EBEBEB"/>
<path d="M384.694 341.057H393.009V332.502H384.694V341.057Z" fill="#EBEBEB"/>
<path d="M384.694 326.528H393.009V317.973H384.694V326.528Z" fill="#EBEBEB"/>
<path d="M384.694 311.998H393.009V303.443H384.694V311.998Z" fill="#EBEBEB"/>
<path d="M384.694 297.469H393.009V288.914H384.694V297.469Z" fill="#EBEBEB"/>
<path d="M382.481 477.798H374.167V486.353H382.481V477.798Z" fill="#EBEBEB"/>
<path d="M433.363 281.632H399.648V505.756H433.363V281.632Z" fill="#A6A6A6"/>
<path d="M423.019 486.341H429.888V477.786H423.019V486.341Z" fill="#C7C7C7"/>
<path d="M414.247 486.341H421.104V477.786H414.247V486.341Z" fill="#C7C7C7"/>
<path d="M423.019 471.812H429.888V463.257H423.019V471.812Z" fill="#C7C7C7"/>
<path d="M414.247 471.812H421.104V463.257H414.247V471.812Z" fill="#C7C7C7"/>
<path d="M423.019 457.282H429.888V448.727H423.019V457.282Z" fill="#C7C7C7"/>
<path d="M414.247 457.282H421.104V448.727H414.247V457.282Z" fill="#C7C7C7"/>
<path d="M423.019 442.764H429.888V434.209H423.019V442.764Z" fill="#C7C7C7"/>
<path d="M414.247 442.764H421.104V434.209H414.247V442.764Z" fill="#C7C7C7"/>
<path d="M423.019 428.235H429.888V419.68H423.019V428.235Z" fill="#C7C7C7"/>
<path d="M414.247 428.235H421.104V419.68H414.247V428.235Z" fill="#C7C7C7"/>
<path d="M423.019 413.705H429.888V405.15H423.019V413.705Z" fill="#C7C7C7"/>
<path d="M414.247 413.705H421.104V405.15H414.247V413.705Z" fill="#C7C7C7"/>
<path d="M423.019 399.175H429.888V390.621H423.019V399.175Z" fill="#C7C7C7"/>
<path d="M414.247 399.175H421.104V390.621H414.247V399.175Z" fill="#C7C7C7"/>
<path d="M423.019 384.646H429.888V376.091H423.019V384.646Z" fill="#C7C7C7"/>
<path d="M414.247 384.646H421.104V376.091H414.247V384.646Z" fill="#C7C7C7"/>
<path d="M423.019 370.116H429.888V361.562H423.019V370.116Z" fill="#C7C7C7"/>
<path d="M414.247 370.116H421.104V361.562H414.247V370.116Z" fill="#C7C7C7"/>
<path d="M423.019 355.587H429.888V347.032H423.019V355.587Z" fill="#C7C7C7"/>
<path d="M414.247 355.587H421.104V347.032H414.247V355.587Z" fill="#C7C7C7"/>
<path d="M423.019 341.057H429.888V332.502H423.019V341.057Z" fill="#C7C7C7"/>
<path d="M414.247 341.057H421.104V332.502H414.247V341.057Z" fill="#C7C7C7"/>
<path d="M423.019 326.528H429.888V317.973H423.019V326.528Z" fill="#C7C7C7"/>
<path d="M414.247 326.528H421.104V317.973H414.247V326.528Z" fill="#C7C7C7"/>
<path d="M423.019 311.998H429.888V303.443H423.019V311.998Z" fill="#C7C7C7"/>
<path d="M414.247 311.998H421.104V303.443H414.247V311.998Z" fill="#C7C7C7"/>
<path d="M423.019 297.469H429.888V288.914H423.019V297.469Z" fill="#C7C7C7"/>
<path d="M412.4 288.914H405.543V297.469H412.4V288.914Z" fill="#C7C7C7"/>
<path d="M412.4 303.443H405.543V311.998H412.4V303.443Z" fill="#C7C7C7"/>
<path d="M412.4 317.973H405.543V326.528H412.4V317.973Z" fill="#C7C7C7"/>
<path d="M412.4 332.502H405.543V341.057H412.4V332.502Z" fill="#C7C7C7"/>
<path d="M412.4 347.032H405.543V355.587H412.4V347.032Z" fill="#C7C7C7"/>
<path d="M412.4 361.561H405.543V370.116H412.4V361.561Z" fill="#C7C7C7"/>
<path d="M412.4 376.091H405.543V384.646H412.4V376.091Z" fill="#C7C7C7"/>
<path d="M412.4 390.621H405.543V399.175H412.4V390.621Z" fill="#C7C7C7"/>
<path d="M412.4 405.15H405.543V413.705H412.4V405.15Z" fill="#C7C7C7"/>
<path d="M412.4 419.68H405.543V428.234H412.4V419.68Z" fill="#C7C7C7"/>
<path d="M412.4 434.209H405.543V442.764H412.4V434.209Z" fill="#C7C7C7"/>
<path d="M412.4 448.739H405.543V457.294H412.4V448.739Z" fill="#C7C7C7"/>
<path d="M412.4 463.268H405.543V471.823H412.4V463.268Z" fill="#C7C7C7"/>
<path d="M412.4 477.798H405.543V486.353H412.4V477.798Z" fill="#C7C7C7"/>
<path d="M414.247 297.469H421.104V288.914H414.247V297.469Z" fill="#C7C7C7"/>
<path d="M245.924 276.747H201.327V505.756H245.924V276.747Z" fill="#EBEBEB"/>
<path d="M245.936 272.183H200.26V276.747H245.936V272.183Z" fill="#C7C7C7"/>
<path d="M209.881 283.467H205.363V505.756H209.881V283.467Z" fill="white"/>
<path d="M217.886 283.467H213.368V505.756H217.886V283.467Z" fill="white"/>
<path d="M225.89 283.467H221.372V505.756H225.89V283.467Z" fill="white"/>
<path d="M233.895 283.467H229.376V505.756H233.895V283.467Z" fill="white"/>
<path d="M241.899 283.467H237.381V505.756H241.899V283.467Z" fill="white"/>
<path d="M209.881 289.224H205.363V298.226H209.881V289.224Z" fill="#EBEBEB"/>
<path d="M217.886 289.224H213.368V298.226H217.886V289.224Z" fill="#EBEBEB"/>
<path d="M225.89 289.224H221.372V298.226H225.89V289.224Z" fill="#EBEBEB"/>
<path d="M233.895 289.224H229.376V298.226H233.895V289.224Z" fill="#EBEBEB"/>
<path d="M241.899 289.224H237.381V298.226H241.899V289.224Z" fill="#EBEBEB"/>
<path d="M209.881 303.856H205.363V312.858H209.881V303.856Z" fill="#EBEBEB"/>
<path d="M217.886 303.856H213.368V312.858H217.886V303.856Z" fill="#EBEBEB"/>
<path d="M225.89 303.856H221.372V312.858H225.89V303.856Z" fill="#EBEBEB"/>
<path d="M233.895 303.856H229.376V312.858H233.895V303.856Z" fill="#EBEBEB"/>
<path d="M241.899 303.856H237.381V312.858H241.899V303.856Z" fill="#EBEBEB"/>
<path d="M209.881 318.489H205.363V327.491H209.881V318.489Z" fill="#EBEBEB"/>
<path d="M217.886 318.489H213.368V327.491H217.886V318.489Z" fill="#EBEBEB"/>
<path d="M225.89 318.489H221.372V327.491H225.89V318.489Z" fill="#EBEBEB"/>
<path d="M233.895 318.489H229.376V327.491H233.895V318.489Z" fill="#EBEBEB"/>
<path d="M241.899 318.489H237.381V327.491H241.899V318.489Z" fill="#EBEBEB"/>
<path d="M209.881 333.122H205.363V342.124H209.881V333.122Z" fill="#EBEBEB"/>
<path d="M217.886 333.122H213.368V342.124H217.886V333.122Z" fill="#EBEBEB"/>
<path d="M225.89 333.122H221.372V342.124H225.89V333.122Z" fill="#EBEBEB"/>
<path d="M233.895 333.122H229.376V342.124H233.895V333.122Z" fill="#EBEBEB"/>
<path d="M241.899 333.122H237.381V342.124H241.899V333.122Z" fill="#EBEBEB"/>
<path d="M209.881 347.754H205.363V356.757H209.881V347.754Z" fill="#EBEBEB"/>
<path d="M217.886 347.754H213.368V356.757H217.886V347.754Z" fill="#EBEBEB"/>
<path d="M225.89 347.754H221.372V356.757H225.89V347.754Z" fill="#EBEBEB"/>
<path d="M233.895 347.754H229.376V356.757H233.895V347.754Z" fill="#EBEBEB"/>
<path d="M241.899 347.754H237.381V356.757H241.899V347.754Z" fill="#EBEBEB"/>
<path d="M209.881 362.376H205.363V371.378H209.881V362.376Z" fill="#EBEBEB"/>
<path d="M217.886 362.376H213.368V371.378H217.886V362.376Z" fill="#EBEBEB"/>
<path d="M225.89 362.376H221.372V371.378H225.89V362.376Z" fill="#EBEBEB"/>
<path d="M233.895 362.376H229.376V371.378H233.895V362.376Z" fill="#EBEBEB"/>
<path d="M241.899 362.376H237.381V371.378H241.899V362.376Z" fill="#EBEBEB"/>
<path d="M209.881 377.008H205.363V386.011H209.881V377.008Z" fill="#EBEBEB"/>
<path d="M217.886 377.008H213.368V386.011H217.886V377.008Z" fill="#EBEBEB"/>
<path d="M225.89 377.008H221.372V386.011H225.89V377.008Z" fill="#EBEBEB"/>
<path d="M233.895 377.008H229.376V386.011H233.895V377.008Z" fill="#EBEBEB"/>
<path d="M241.899 377.008H237.381V386.011H241.899V377.008Z" fill="#EBEBEB"/>
<path d="M209.881 391.641H205.363V400.643H209.881V391.641Z" fill="#EBEBEB"/>
<path d="M217.886 391.641H213.368V400.643H217.886V391.641Z" fill="#EBEBEB"/>
<path d="M225.89 391.641H221.372V400.643H225.89V391.641Z" fill="#EBEBEB"/>
<path d="M233.895 391.641H229.376V400.643H233.895V391.641Z" fill="#EBEBEB"/>
<path d="M241.899 391.641H237.381V400.643H241.899V391.641Z" fill="#EBEBEB"/>
<path d="M209.881 406.274H205.363V415.276H209.881V406.274Z" fill="#EBEBEB"/>
<path d="M217.886 406.274H213.368V415.276H217.886V406.274Z" fill="#EBEBEB"/>
<path d="M225.89 406.274H221.372V415.276H225.89V406.274Z" fill="#EBEBEB"/>
<path d="M233.895 406.274H229.376V415.276H233.895V406.274Z" fill="#EBEBEB"/>
<path d="M241.899 406.274H237.381V415.276H241.899V406.274Z" fill="#EBEBEB"/>
<path d="M209.881 420.907H205.363V429.909H209.881V420.907Z" fill="#EBEBEB"/>
<path d="M217.886 420.907H213.368V429.909H217.886V420.907Z" fill="#EBEBEB"/>
<path d="M225.89 420.907H221.372V429.909H225.89V420.907Z" fill="#EBEBEB"/>
<path d="M233.895 420.907H229.376V429.909H233.895V420.907Z" fill="#EBEBEB"/>
<path d="M241.899 420.907H237.381V429.909H241.899V420.907Z" fill="#EBEBEB"/>
<path d="M209.881 435.539H205.363V444.541H209.881V435.539Z" fill="#EBEBEB"/>
<path d="M217.886 435.539H213.368V444.541H217.886V435.539Z" fill="#EBEBEB"/>
<path d="M225.89 435.539H221.372V444.541H225.89V435.539Z" fill="#EBEBEB"/>
<path d="M233.895 435.539H229.376V444.541H233.895V435.539Z" fill="#EBEBEB"/>
<path d="M241.899 435.539H237.381V444.541H241.899V435.539Z" fill="#EBEBEB"/>
<path d="M209.881 450.161H205.363V459.163H209.881V450.161Z" fill="#EBEBEB"/>
<path d="M217.886 450.161H213.368V459.163H217.886V450.161Z" fill="#EBEBEB"/>
<path d="M225.89 450.161H221.372V459.163H225.89V450.161Z" fill="#EBEBEB"/>
<path d="M233.895 450.161H229.376V459.163H233.895V450.161Z" fill="#EBEBEB"/>
<path d="M241.899 450.161H237.381V459.163H241.899V450.161Z" fill="#EBEBEB"/>
<path d="M209.881 464.793H205.363V473.796H209.881V464.793Z" fill="#EBEBEB"/>
<path d="M217.886 464.793H213.368V473.796H217.886V464.793Z" fill="#EBEBEB"/>
<path d="M225.89 464.793H221.372V473.796H225.89V464.793Z" fill="#EBEBEB"/>
<path d="M233.895 464.793H229.376V473.796H233.895V464.793Z" fill="#EBEBEB"/>
<path d="M241.899 464.793H237.381V473.796H241.899V464.793Z" fill="#EBEBEB"/>
<path d="M209.881 479.426H205.363V505.756H209.881V479.426Z" fill="#EBEBEB"/>
<path d="M217.886 479.426H213.368V505.756H217.886V479.426Z" fill="#EBEBEB"/>
<path d="M225.89 479.426H221.372V505.756H225.89V479.426Z" fill="#EBEBEB"/>
<path d="M233.895 479.426H229.376V505.756H233.895V479.426Z" fill="#EBEBEB"/>
<path d="M241.899 479.426H237.381V505.756H241.899V479.426Z" fill="#EBEBEB"/>
<path d="M274.57 276.747H245.936V505.756H274.57V276.747Z" fill="#DBDBDB"/>
<path d="M275.809 272.183H245.936V276.747H275.809V272.183Z" fill="#C7C7C7"/>
<path d="M254.479 283.467H249.961V505.756H254.479V283.467Z" fill="#C7C7C7"/>
<path d="M262.484 283.467H257.965V505.756H262.484V283.467Z" fill="#C7C7C7"/>
<path d="M270.488 283.467H265.97V505.756H270.488V283.467Z" fill="#C7C7C7"/>
<path d="M254.479 289.224H249.961V298.226H254.479V289.224Z" fill="#DBDBDB"/>
<path d="M262.484 289.224H257.965V298.226H262.484V289.224Z" fill="#DBDBDB"/>
<path d="M270.488 289.224H265.97V298.226H270.488V289.224Z" fill="#DBDBDB"/>
<path d="M254.479 303.856H249.961V312.858H254.479V303.856Z" fill="#DBDBDB"/>
<path d="M262.484 303.856H257.965V312.858H262.484V303.856Z" fill="#DBDBDB"/>
<path d="M270.488 303.856H265.97V312.858H270.488V303.856Z" fill="#DBDBDB"/>
<path d="M254.479 318.489H249.961V327.491H254.479V318.489Z" fill="#DBDBDB"/>
<path d="M262.484 318.489H257.965V327.491H262.484V318.489Z" fill="#DBDBDB"/>
<path d="M270.488 318.489H265.97V327.491H270.488V318.489Z" fill="#DBDBDB"/>
<path d="M254.479 333.122H249.961V342.124H254.479V333.122Z" fill="#DBDBDB"/>
<path d="M262.484 333.122H257.965V342.124H262.484V333.122Z" fill="#DBDBDB"/>
<path d="M270.488 333.122H265.97V342.124H270.488V333.122Z" fill="#DBDBDB"/>
<path d="M254.479 347.754H249.961V356.757H254.479V347.754Z" fill="#DBDBDB"/>
<path d="M262.484 347.754H257.965V356.757H262.484V347.754Z" fill="#DBDBDB"/>
<path d="M270.488 347.754H265.97V356.757H270.488V347.754Z" fill="#DBDBDB"/>
<path d="M254.479 362.376H249.961V371.378H254.479V362.376Z" fill="#DBDBDB"/>
<path d="M262.484 362.376H257.965V371.378H262.484V362.376Z" fill="#DBDBDB"/>
<path d="M270.488 362.376H265.97V371.378H270.488V362.376Z" fill="#DBDBDB"/>
<path d="M254.479 377.008H249.961V386.011H254.479V377.008Z" fill="#DBDBDB"/>
<path d="M262.484 377.008H257.965V386.011H262.484V377.008Z" fill="#DBDBDB"/>
<path d="M270.488 377.008H265.97V386.011H270.488V377.008Z" fill="#DBDBDB"/>
<path d="M254.479 391.641H249.961V400.643H254.479V391.641Z" fill="#DBDBDB"/>
<path d="M262.484 391.641H257.965V400.643H262.484V391.641Z" fill="#DBDBDB"/>
<path d="M270.488 391.641H265.97V400.643H270.488V391.641Z" fill="#DBDBDB"/>
<path d="M254.479 406.274H249.961V415.276H254.479V406.274Z" fill="#DBDBDB"/>
<path d="M262.484 406.274H257.965V415.276H262.484V406.274Z" fill="#DBDBDB"/>
<path d="M270.488 406.274H265.97V415.276H270.488V406.274Z" fill="#DBDBDB"/>
<path d="M254.479 420.907H249.961V429.909H254.479V420.907Z" fill="#DBDBDB"/>
<path d="M262.484 420.907H257.965V429.909H262.484V420.907Z" fill="#DBDBDB"/>
<path d="M270.488 420.907H265.97V429.909H270.488V420.907Z" fill="#DBDBDB"/>
<path d="M254.479 435.539H249.961V444.541H254.479V435.539Z" fill="#DBDBDB"/>
<path d="M262.484 435.539H257.965V444.541H262.484V435.539Z" fill="#DBDBDB"/>
<path d="M270.488 435.539H265.97V444.541H270.488V435.539Z" fill="#DBDBDB"/>
<path d="M254.479 450.161H249.961V459.163H254.479V450.161Z" fill="#DBDBDB"/>
<path d="M262.484 450.161H257.965V459.163H262.484V450.161Z" fill="#DBDBDB"/>
<path d="M270.488 450.161H265.97V459.163H270.488V450.161Z" fill="#DBDBDB"/>
<path d="M254.479 464.793H249.961V473.796H254.479V464.793Z" fill="#DBDBDB"/>
<path d="M262.484 464.793H257.965V473.796H262.484V464.793Z" fill="#DBDBDB"/>
<path d="M270.488 464.793H265.97V473.796H270.488V464.793Z" fill="#DBDBDB"/>
<path d="M254.479 479.426H249.961V505.756H254.479V479.426Z" fill="#DBDBDB"/>
<path d="M262.484 479.426H257.965V505.756H262.484V479.426Z" fill="#DBDBDB"/>
<path d="M270.488 479.426H265.97V505.756H270.488V479.426Z" fill="#DBDBDB"/>
<path d="M181.212 345.335H138.908V505.756H181.212V345.335Z" fill="#EBEBEB"/>
<path d="M181.212 334.693H144.929V345.335H181.212V334.693Z" fill="#C7C7C7"/>
<path d="M176.568 350.885H143.541V470.814H176.568V350.885Z" fill="#DBDBDB"/>
<path d="M176.568 362.33H143.541V365.162H176.568V362.33Z" fill="white"/>
<path d="M176.568 374.073H143.541V376.905H176.568V374.073Z" fill="white"/>
<path d="M176.568 385.804H143.541V388.637H176.568V385.804Z" fill="white"/>
<path d="M176.568 397.547H143.541V400.38H176.568V397.547Z" fill="white"/>
<path d="M176.568 409.29H143.541V412.122H176.568V409.29Z" fill="white"/>
<path d="M176.568 421.021H143.541V423.854H176.568V421.021Z" fill="white"/>
<path d="M176.568 432.764H143.541V435.597H176.568V432.764Z" fill="white"/>
<path d="M176.568 444.507H143.541V447.34H176.568V444.507Z" fill="white"/>
<path d="M176.568 456.239H143.541V459.071H176.568V456.239Z" fill="white"/>
<path d="M176.568 467.981H143.541V470.814H176.568V467.981Z" fill="white"/>
<path d="M207.703 345.335H181.212V505.756H207.703V345.335Z" fill="#DBDBDB"/>
<path d="M203.735 334.693H181.212V345.335H203.735V334.693Z" fill="#A6A6A6"/>
<path d="M205.226 350.885H184.859V470.814H205.226V350.885Z" fill="#C7C7C7"/>
<path d="M205.226 362.33H184.859V365.162H205.226V362.33Z" fill="white"/>
<path d="M205.226 374.073H184.859V376.905H205.226V374.073Z" fill="white"/>
<path d="M205.226 385.804H184.859V388.637H205.226V385.804Z" fill="white"/>
<path d="M205.226 397.547H184.859V400.38H205.226V397.547Z" fill="white"/>
<path d="M205.226 409.29H184.859V412.122H205.226V409.29Z" fill="white"/>
<path d="M205.226 421.021H184.859V423.854H205.226V421.021Z" fill="white"/>
<path d="M205.226 432.764H184.859V435.597H205.226V432.764Z" fill="white"/>
<path d="M205.226 444.507H184.859V447.34H205.226V444.507Z" fill="white"/>
<path d="M205.226 456.239H184.859V459.071H205.226V456.239Z" fill="white"/>
<path d="M205.226 467.981H184.859V470.814H205.226V467.981Z" fill="white"/>
<path d="M539.474 348.041H516.882V374.726H539.474V348.041Z" fill="#DBDBDB"/>
<path d="M553.797 348.041H539.473V375.713H553.797V348.041Z" fill="#C7C7C7"/>
<path d="M554.748 359.818H540.528V375.701H554.748V359.818Z" fill="#DBDBDB"/>
<path d="M563.613 359.818H554.748V375.701H563.613V359.818Z" fill="#C7C7C7"/>
<path d="M544.749 372.995H508.213V505.767H544.749V372.995Z" fill="#EBEBEB"/>
<path d="M523.877 378.694H512.387V383.385H523.877V378.694Z" fill="white"/>
<path d="M538.579 378.694H527.088V383.385H538.579V378.694Z" fill="white"/>
<path d="M523.877 386.664H512.387V391.354H523.877V386.664Z" fill="white"/>
<path d="M538.579 386.664H527.088V391.354H538.579V386.664Z" fill="white"/>
<path d="M523.877 394.634H512.387V399.325H523.877V394.634Z" fill="white"/>
<path d="M538.579 394.634H527.088V399.325H538.579V394.634Z" fill="white"/>
<path d="M523.877 402.604H512.387V407.295H523.877V402.604Z" fill="white"/>
<path d="M538.579 402.604H527.088V407.295H538.579V402.604Z" fill="white"/>
<path d="M523.877 410.574H512.387V415.265H523.877V410.574Z" fill="white"/>
<path d="M538.579 410.574H527.088V415.265H538.579V410.574Z" fill="white"/>
<path d="M523.877 418.544H512.387V423.235H523.877V418.544Z" fill="white"/>
<path d="M538.579 418.544H527.088V423.235H538.579V418.544Z" fill="white"/>
<path d="M523.877 426.514H512.387V431.205H523.877V426.514Z" fill="white"/>
<path d="M538.579 426.514H527.088V431.205H538.579V426.514Z" fill="white"/>
<path d="M523.877 434.484H512.387V439.175H523.877V434.484Z" fill="white"/>
<path d="M538.579 434.484H527.088V439.175H538.579V434.484Z" fill="white"/>
<path d="M523.877 442.454H512.387V447.145H523.877V442.454Z" fill="white"/>
<path d="M538.579 442.454H527.088V447.145H538.579V442.454Z" fill="white"/>
<path d="M523.877 450.424H512.387V455.115H523.877V450.424Z" fill="white"/>
<path d="M538.579 450.424H527.088V455.115H538.579V450.424Z" fill="white"/>
<path d="M523.877 458.383H512.387V463.073H523.877V458.383Z" fill="white"/>
<path d="M538.579 458.383H527.088V463.073H538.579V458.383Z" fill="white"/>
<path d="M523.877 466.353H512.387V471.043H523.877V466.353Z" fill="white"/>
<path d="M538.579 466.353H527.088V471.043H538.579V466.353Z" fill="white"/>
<path d="M523.877 474.323H512.387V479.013H523.877V474.323Z" fill="white"/>
<path d="M538.579 474.323H527.088V479.013H538.579V474.323Z" fill="white"/>
<path d="M523.877 482.293H512.387V486.983H523.877V482.293Z" fill="white"/>
<path d="M538.579 482.293H527.088V486.983H538.579V482.293Z" fill="white"/>
<path d="M574.347 372.995H544.749V505.767H574.347V372.995Z" fill="#C7C7C7"/>
<path d="M561.95 486.995H571.376V482.305H561.95V486.995Z" fill="#EBEBEB"/>
<path d="M549.886 486.995H559.313V482.305H549.886V486.995Z" fill="#EBEBEB"/>
<path d="M561.95 479.025H571.376V474.335H561.95V479.025Z" fill="#EBEBEB"/>
<path d="M549.886 479.025H559.313V474.335H549.886V479.025Z" fill="#EBEBEB"/>
<path d="M561.95 471.055H571.376V466.364H561.95V471.055Z" fill="#EBEBEB"/>
<path d="M549.886 471.055H559.313V466.364H549.886V471.055Z" fill="#EBEBEB"/>
<path d="M561.95 463.085H571.376V458.394H561.95V463.085Z" fill="#EBEBEB"/>
<path d="M549.886 463.085H559.313V458.394H549.886V463.085Z" fill="#EBEBEB"/>
<path d="M561.95 455.103H571.376V450.413H561.95V455.103Z" fill="#EBEBEB"/>
<path d="M549.886 455.103H559.313V450.413H549.886V455.103Z" fill="#EBEBEB"/>
<path d="M561.95 447.145H571.376V442.454H561.95V447.145Z" fill="#EBEBEB"/>
<path d="M549.886 447.145H559.313V442.454H549.886V447.145Z" fill="#EBEBEB"/>
<path d="M561.95 439.175H571.376V434.484H561.95V439.175Z" fill="#EBEBEB"/>
<path d="M549.886 439.175H559.313V434.484H549.886V439.175Z" fill="#EBEBEB"/>
<path d="M561.95 431.205H571.376V426.514H561.95V431.205Z" fill="#EBEBEB"/>
<path d="M549.886 431.205H559.313V426.514H549.886V431.205Z" fill="#EBEBEB"/>
<path d="M561.95 423.235H571.376V418.544H561.95V423.235Z" fill="#EBEBEB"/>
<path d="M549.886 423.235H559.313V418.544H549.886V423.235Z" fill="#EBEBEB"/>
<path d="M561.95 415.265H571.376V410.574H561.95V415.265Z" fill="#EBEBEB"/>
<path d="M549.886 415.265H559.313V410.574H549.886V415.265Z" fill="#EBEBEB"/>
<path d="M561.95 407.295H571.376V402.604H561.95V407.295Z" fill="#EBEBEB"/>
<path d="M549.886 407.295H559.313V402.604H549.886V407.295Z" fill="#EBEBEB"/>
<path d="M561.95 399.336H571.376V394.646H561.95V399.336Z" fill="#EBEBEB"/>
<path d="M549.886 399.336H559.313V394.646H549.886V399.336Z" fill="#EBEBEB"/>
<path d="M561.95 391.366H571.376V386.676H561.95V391.366Z" fill="#EBEBEB"/>
<path d="M549.886 391.366H559.313V386.676H549.886V391.366Z" fill="#EBEBEB"/>
<path d="M561.95 383.396H571.376V378.706H561.95V383.396Z" fill="#EBEBEB"/>
<path d="M549.886 383.396H559.313V378.706H549.886V383.396Z" fill="#EBEBEB"/>
<path d="M295.224 348.041H272.632V374.726H295.224V348.041Z" fill="#DBDBDB"/>
<path d="M309.547 348.041H295.224V375.713H309.547V348.041Z" fill="#C7C7C7"/>
<path d="M310.51 359.818H296.29V375.701H310.51V359.818Z" fill="#DBDBDB"/>
<path d="M319.363 359.818H310.499V375.701H319.363V359.818Z" fill="#C7C7C7"/>
<path d="M300.499 372.995H263.963V505.767H300.499V372.995Z" fill="#EBEBEB"/>
<path d="M279.628 378.694H268.137V383.385H279.628V378.694Z" fill="white"/>
<path d="M294.329 378.694H282.839V383.385H294.329V378.694Z" fill="white"/>
<path d="M279.628 386.664H268.137V391.354H279.628V386.664Z" fill="white"/>
<path d="M294.329 386.664H282.839V391.354H294.329V386.664Z" fill="white"/>
<path d="M279.628 394.634H268.137V399.325H279.628V394.634Z" fill="white"/>
<path d="M294.329 394.634H282.839V399.325H294.329V394.634Z" fill="white"/>
<path d="M279.628 402.604H268.137V407.295H279.628V402.604Z" fill="white"/>
<path d="M294.329 402.604H282.839V407.295H294.329V402.604Z" fill="white"/>
<path d="M279.628 410.574H268.137V415.265H279.628V410.574Z" fill="white"/>
<path d="M294.329 410.574H282.839V415.265H294.329V410.574Z" fill="white"/>
<path d="M279.628 418.544H268.137V423.235H279.628V418.544Z" fill="white"/>
<path d="M294.329 418.544H282.839V423.235H294.329V418.544Z" fill="white"/>
<path d="M279.628 426.514H268.137V431.205H279.628V426.514Z" fill="white"/>
<path d="M294.329 426.514H282.839V431.205H294.329V426.514Z" fill="white"/>
<path d="M279.628 434.484H268.137V439.175H279.628V434.484Z" fill="white"/>
<path d="M294.329 434.484H282.839V439.175H294.329V434.484Z" fill="white"/>
<path d="M279.628 442.454H268.137V447.145H279.628V442.454Z" fill="white"/>
<path d="M294.329 442.454H282.839V447.145H294.329V442.454Z" fill="white"/>
<path d="M279.628 450.424H268.137V455.115H279.628V450.424Z" fill="white"/>
<path d="M294.329 450.424H282.839V455.115H294.329V450.424Z" fill="white"/>
<path d="M279.628 458.383H268.137V463.073H279.628V458.383Z" fill="white"/>
<path d="M294.329 458.383H282.839V463.073H294.329V458.383Z" fill="white"/>
<path d="M279.628 466.353H268.137V471.043H279.628V466.353Z" fill="white"/>
<path d="M294.329 466.353H282.839V471.043H294.329V466.353Z" fill="white"/>
<path d="M279.628 474.323H268.137V479.013H279.628V474.323Z" fill="white"/>
<path d="M294.329 474.323H282.839V479.013H294.329V474.323Z" fill="white"/>
<path d="M279.628 482.293H268.137V486.983H279.628V482.293Z" fill="white"/>
<path d="M294.329 482.293H282.839V486.983H294.329V482.293Z" fill="white"/>
<path d="M330.097 372.995H300.499V505.767H330.097V372.995Z" fill="#C7C7C7"/>
<path d="M317.7 486.995H327.127V482.305H317.7V486.995Z" fill="#EBEBEB"/>
<path d="M305.636 486.995H315.063V482.305H305.636V486.995Z" fill="#EBEBEB"/>
<path d="M317.7 479.025H327.127V474.335H317.7V479.025Z" fill="#EBEBEB"/>
<path d="M305.636 479.025H315.063V474.335H305.636V479.025Z" fill="#EBEBEB"/>
<path d="M317.7 471.055H327.127V466.364H317.7V471.055Z" fill="#EBEBEB"/>
<path d="M305.636 471.055H315.063V466.364H305.636V471.055Z" fill="#EBEBEB"/>
<path d="M317.7 463.085H327.127V458.394H317.7V463.085Z" fill="#EBEBEB"/>
<path d="M305.636 463.085H315.063V458.394H305.636V463.085Z" fill="#EBEBEB"/>
<path d="M317.7 455.103H327.127V450.413H317.7V455.103Z" fill="#EBEBEB"/>
<path d="M305.636 455.103H315.063V450.413H305.636V455.103Z" fill="#EBEBEB"/>
<path d="M317.7 447.145H327.127V442.454H317.7V447.145Z" fill="#EBEBEB"/>
<path d="M305.636 447.145H315.063V442.454H305.636V447.145Z" fill="#EBEBEB"/>
<path d="M317.7 439.175H327.127V434.484H317.7V439.175Z" fill="#EBEBEB"/>
<path d="M305.636 439.175H315.063V434.484H305.636V439.175Z" fill="#EBEBEB"/>
<path d="M317.7 431.205H327.127V426.514H317.7V431.205Z" fill="#EBEBEB"/>
<path d="M305.636 431.205H315.063V426.514H305.636V431.205Z" fill="#EBEBEB"/>
<path d="M317.7 423.235H327.127V418.544H317.7V423.235Z" fill="#EBEBEB"/>
<path d="M305.636 423.235H315.063V418.544H305.636V423.235Z" fill="#EBEBEB"/>
<path d="M317.7 415.265H327.127V410.574H317.7V415.265Z" fill="#EBEBEB"/>
<path d="M305.636 415.265H315.063V410.574H305.636V415.265Z" fill="#EBEBEB"/>
<path d="M317.7 407.295H327.127V402.604H317.7V407.295Z" fill="#EBEBEB"/>
<path d="M305.636 407.295H315.063V402.604H305.636V407.295Z" fill="#EBEBEB"/>
<path d="M317.7 399.336H327.127V394.646H317.7V399.336Z" fill="#EBEBEB"/>
<path d="M305.636 399.336H315.063V394.646H305.636V399.336Z" fill="#EBEBEB"/>
<path d="M317.7 391.366H327.127V386.676H317.7V391.366Z" fill="#EBEBEB"/>
<path d="M305.636 391.366H315.063V386.676H305.636V391.366Z" fill="#EBEBEB"/>
<path d="M317.7 383.396H327.127V378.706H317.7V383.396Z" fill="#EBEBEB"/>
<path d="M305.636 383.396H315.063V378.706H305.636V383.396Z" fill="#EBEBEB"/>
<path d="M359.5 583.392C468.542 583.392 556.939 574.561 556.939 563.668C556.939 552.774 468.542 543.943 359.5 543.943C250.458 543.943 162.061 552.774 162.061 563.668C162.061 574.561 250.458 583.392 359.5 583.392Z" fill="#EBEBEB"/>
<path d="M470.874 419.244H427.79V505.756H470.874V419.244Z" fill="#37474F"/>
<path d="M442.193 426.732H434.567V432.03H442.193V426.732Z" fill="#455A64"/>
<path d="M442.193 438.051H434.567V443.349H442.193V438.051Z" fill="#455A64"/>
<path d="M442.193 449.37H434.567V454.668H442.193V449.37Z" fill="#455A64"/>
<path d="M442.193 460.7H434.567V465.998H442.193V460.7Z" fill="#455A64"/>
<path d="M442.193 472.018H434.567V477.316H442.193V472.018Z" fill="#455A64"/>
<path d="M442.193 483.337H434.567V488.635H442.193V483.337Z" fill="#455A64"/>
<path d="M442.193 494.655H434.567V499.953H442.193V494.655Z" fill="#455A64"/>
<path d="M453.156 426.732H445.53V432.03H453.156V426.732Z" fill="#455A64"/>
<path d="M453.156 438.051H445.53V443.349H453.156V438.051Z" fill="#455A64"/>
<path d="M453.156 449.37H445.53V454.668H453.156V449.37Z" fill="#455A64"/>
<path d="M453.156 460.7H445.53V465.998H453.156V460.7Z" fill="#455A64"/>
<path d="M453.156 472.018H445.53V477.316H453.156V472.018Z" fill="#455A64"/>
<path d="M453.156 483.337H445.53V488.635H453.156V483.337Z" fill="#455A64"/>
<path d="M453.156 494.655H445.53V499.953H453.156V494.655Z" fill="#455A64"/>
<path d="M464.108 426.732H456.482V432.03H464.108V426.732Z" fill="#455A64"/>
<path d="M464.108 438.051H456.482V443.349H464.108V438.051Z" fill="#455A64"/>
<path d="M464.108 449.37H456.482V454.668H464.108V449.37Z" fill="#455A64"/>
<path d="M464.108 460.7H456.482V465.998H464.108V460.7Z" fill="#455A64"/>
<path d="M464.108 472.018H456.482V477.316H464.108V472.018Z" fill="#455A64"/>
<path d="M464.108 483.337H456.482V488.635H464.108V483.337Z" fill="#455A64"/>
<path d="M464.108 494.655H456.482V499.953H464.108V494.655Z" fill="#455A64"/>
<path d="M470.885 410.23H442.193V419.244H470.885V410.23Z" fill="#455A64"/>
<path d="M470.874 404.646H452.686V410.23H470.874V404.646Z" fill="#37474F"/>
<path d="M501.103 419.244H470.874V505.756H501.103V419.244Z" fill="#263238"/>
<path d="M491.802 499.105H498.006V493.807H491.802V499.105Z" fill="#37474F"/>
<path d="M491.802 487.798H498.006V482.5H491.802V487.798Z" fill="#37474F"/>
<path d="M491.802 476.479H498.006V471.181H491.802V476.479Z" fill="#37474F"/>
<path d="M491.802 465.149H498.006V459.851H491.802V465.149Z" fill="#37474F"/>
<path d="M491.802 453.83H498.006V448.532H491.802V453.83Z" fill="#37474F"/>
<path d="M491.802 442.5H498.006V437.202H491.802V442.5Z" fill="#37474F"/>
<path d="M491.802 431.193H498.006V425.895H491.802V431.193Z" fill="#37474F"/>
<path d="M482.881 499.105H489.085V493.807H482.881V499.105Z" fill="#37474F"/>
<path d="M482.881 487.798H489.085V482.5H482.881V487.798Z" fill="#37474F"/>
<path d="M482.881 476.479H489.085V471.181H482.881V476.479Z" fill="#37474F"/>
<path d="M482.881 465.149H489.085V459.851H482.881V465.149Z" fill="#37474F"/>
<path d="M482.881 453.83H489.085V448.532H482.881V453.83Z" fill="#37474F"/>
<path d="M482.881 442.5H489.085V437.202H482.881V442.5Z" fill="#37474F"/>
<path d="M482.881 431.193H489.085V425.895H482.881V431.193Z" fill="#37474F"/>
<path d="M473.982 499.105H480.186V493.807H473.982V499.105Z" fill="#37474F"/>
<path d="M473.982 487.798H480.186V482.5H473.982V487.798Z" fill="#37474F"/>
<path d="M473.982 476.479H480.186V471.181H473.982V476.479Z" fill="#37474F"/>
<path d="M473.982 465.149H480.186V459.851H473.982V465.149Z" fill="#37474F"/>
<path d="M473.982 453.83H480.186V448.532H473.982V453.83Z" fill="#37474F"/>
<path d="M473.982 442.5H480.186V437.202H473.982V442.5Z" fill="#37474F"/>
<path d="M473.982 431.193H480.186V425.895H473.982V431.193Z" fill="#37474F"/>
<path d="M496.527 410.23H470.874V419.244H496.527V410.23Z" fill="#37474F"/>
<path d="M484.773 404.646H470.874V410.23H484.773V404.646Z" fill="#263238"/>
<path d="M459.154 171.359H470.736C445.244 171.359 424.59 192.333 424.59 218.204C424.59 244.075 445.232 265.073 470.736 265.073H459.154C433.661 265.073 413.008 244.098 413.008 218.204C413.008 192.31 433.661 171.359 459.154 171.359Z" fill="#FF771A"/>
<g opacity="0.1">
<path opacity="0.1" d="M459.154 171.359H470.736C445.244 171.359 424.59 192.333 424.59 218.204C424.59 244.075 445.232 265.073 470.736 265.073H459.154C433.661 265.073 413.008 244.098 413.008 218.204C413.008 192.31 433.661 171.359 459.154 171.359Z" fill="black"/>
</g>
<path d="M470.736 398.017H459.154C505.999 343.443 549.875 283.616 543.43 217.562C539.233 174.776 510.174 132.162 459.154 132.162H470.736C521.767 132.162 550.815 174.776 555.001 217.562C561.503 283.616 517.628 343.443 470.736 398.017Z" fill="#FF771A"/>
<g opacity="0.1">
<path opacity="0.1" d="M470.736 398.017H459.154C505.999 343.443 549.875 283.616 543.43 217.562C539.233 174.776 510.174 132.162 459.154 132.162H470.736C521.767 132.162 550.815 174.776 555.001 217.562C561.503 283.616 517.628 343.443 470.736 398.017Z" fill="black"/>
</g>
<path d="M543.418 217.562C549.875 283.615 505.999 343.442 459.154 398.028C412.366 343.442 368.491 283.615 374.935 217.562C379.133 174.776 408.192 132.173 459.154 132.173C510.116 132.173 539.233 174.776 543.418 217.562ZM459.154 265.072C484.704 265.072 505.357 244.098 505.357 218.204C505.357 192.31 484.715 171.358 459.154 171.358C433.593 171.358 413.008 192.333 413.008 218.204C413.008 244.075 433.65 265.072 459.154 265.072Z" fill="#FF771A"/>
<path d="M131.156 511.077L188.242 510.802L245.328 510.698L359.5 510.504L473.672 510.698L530.758 510.802L587.844 511.077L530.758 511.364L473.672 511.467L359.5 511.65L245.328 511.467L188.242 511.364L131.156 511.077Z" fill="#263238"/>
<path d="M588.05 505.756H130.95V511.077H588.05V505.756Z" fill="#C7C7C7"/>
<path d="M144.172 505.756C144.477 507.516 144.477 509.316 144.172 511.077C143.851 509.318 143.851 507.515 144.172 505.756Z" fill="#263238"/>
<path d="M159.55 505.756C159.856 507.516 159.856 509.316 159.55 511.077C159.244 509.316 159.244 507.516 159.55 505.756Z" fill="#263238"/>
<path d="M174.928 505.756C175.234 507.516 175.234 509.316 174.928 511.077C174.622 509.316 174.622 507.516 174.928 505.756Z" fill="#263238"/>
<path d="M190.306 505.756C190.612 507.516 190.612 509.316 190.306 511.077C190 509.316 190 507.516 190.306 505.756Z" fill="#263238"/>
<path d="M205.696 505.756C206.001 507.516 206.001 509.316 205.696 511.077C205.375 509.318 205.375 507.515 205.696 505.756Z" fill="#263238"/>
<path d="M221.074 505.756C221.38 507.516 221.38 509.316 221.074 511.077C220.768 509.316 220.768 507.516 221.074 505.756Z" fill="#263238"/>
<path d="M236.452 505.756C236.758 507.516 236.758 509.316 236.452 511.077C236.146 509.316 236.146 507.516 236.452 505.756Z" fill="#263238"/>
<path d="M251.83 505.756C252.136 507.516 252.136 509.316 251.83 511.077C251.524 509.316 251.524 507.516 251.83 505.756Z" fill="#263238"/>
<path d="M267.22 505.756C267.525 507.516 267.525 509.316 267.22 511.077C266.899 509.318 266.899 507.515 267.22 505.756Z" fill="#263238"/>
<path d="M282.598 505.756C282.904 507.516 282.904 509.316 282.598 511.077C282.292 509.316 282.292 507.516 282.598 505.756Z" fill="#263238"/>
<path d="M297.976 505.756C298.282 507.516 298.282 509.316 297.976 511.077C297.67 509.316 297.67 507.516 297.976 505.756Z" fill="#263238"/>
<path d="M313.354 505.756C313.66 507.516 313.66 509.316 313.354 511.077C313.048 509.316 313.048 507.516 313.354 505.756Z" fill="#263238"/>
<path d="M328.744 505.756C329.049 507.516 329.049 509.316 328.744 511.077C328.423 509.318 328.423 507.515 328.744 505.756Z" fill="#263238"/>
<path d="M344.122 505.756C344.428 507.516 344.428 509.316 344.122 511.077C343.816 509.316 343.816 507.516 344.122 505.756Z" fill="#263238"/>
<path d="M359.5 505.756C359.806 507.516 359.806 509.316 359.5 511.077C359.194 509.316 359.194 507.516 359.5 505.756Z" fill="#263238"/>
<path d="M374.878 505.756C375.184 507.516 375.184 509.316 374.878 511.077C374.572 509.316 374.572 507.516 374.878 505.756Z" fill="#263238"/>
<path d="M390.268 505.756C390.573 507.516 390.573 509.316 390.268 511.077C389.947 509.318 389.947 507.515 390.268 505.756Z" fill="#263238"/>
<path d="M405.646 505.756C405.952 507.516 405.952 509.316 405.646 511.077C405.34 509.316 405.34 507.516 405.646 505.756Z" fill="#263238"/>
<path d="M421.024 505.756C421.33 507.516 421.33 509.316 421.024 511.077C420.718 509.316 420.718 507.516 421.024 505.756Z" fill="#263238"/>
<path d="M436.402 505.756C436.708 507.516 436.708 509.316 436.402 511.077C436.096 509.316 436.096 507.516 436.402 505.756Z" fill="#263238"/>
<path d="M451.78 505.756C452.101 507.515 452.101 509.318 451.78 511.077C451.475 509.316 451.475 507.516 451.78 505.756Z" fill="#263238"/>
<path d="M467.17 505.756C467.476 507.516 467.476 509.316 467.17 511.077C466.864 509.316 466.864 507.516 467.17 505.756Z" fill="#263238"/>
<path d="M482.548 505.756C482.854 507.516 482.854 509.316 482.548 511.077C482.242 509.316 482.242 507.516 482.548 505.756Z" fill="#263238"/>
<path d="M497.926 505.756C498.232 507.516 498.232 509.316 497.926 511.077C497.62 509.316 497.62 507.516 497.926 505.756Z" fill="#263238"/>
<path d="M513.304 505.756C513.625 507.515 513.625 509.318 513.304 511.077C512.999 509.316 512.999 507.516 513.304 505.756Z" fill="#263238"/>
<path d="M528.694 505.756C529 507.516 529 509.316 528.694 511.077C528.388 509.316 528.388 507.516 528.694 505.756Z" fill="#263238"/>
<path d="M544.129 505.756C544.435 507.516 544.435 509.316 544.129 511.077C543.962 510.2 543.885 509.309 543.9 508.416C543.891 507.524 543.968 506.633 544.129 505.756Z" fill="#263238"/>
<path d="M559.45 505.756C559.756 507.516 559.756 509.316 559.45 511.077C559.144 509.316 559.144 507.516 559.45 505.756Z" fill="#263238"/>
<path d="M574.828 505.756C575.149 507.515 575.149 509.318 574.828 511.077C574.523 509.316 574.523 507.516 574.828 505.756Z" fill="#263238"/>
<path d="M178.827 505.756H153.598C153.598 505.756 153.598 502.006 156.132 501.008C156.807 500.726 157.555 500.665 158.266 500.837C158.978 501.008 159.616 501.401 160.089 501.96C160.089 501.96 161.098 495.079 165.719 495.079C170.341 495.079 172.577 501.008 172.577 501.008C172.969 500.439 173.518 499.997 174.158 499.736C174.798 499.475 175.5 499.407 176.178 499.54C178.724 499.884 178.827 505.756 178.827 505.756Z" fill="#37474F"/>
<path d="M584.106 505.756C584.106 505.756 583.337 502.155 581.812 501.593C581.339 501.469 580.839 501.507 580.39 501.7C579.941 501.893 579.57 502.231 579.335 502.66C579.335 502.66 578.968 499.219 576.778 498.187C574.588 497.155 572.948 499.265 572.948 499.265C572.948 499.265 571.273 494.896 568.269 494.896C565.264 494.896 563.751 501.283 563.751 501.283C563.751 501.283 561.985 499.38 560.173 500.458C558.361 501.536 558.361 505.756 558.361 505.756H584.106Z" fill="#37474F"/>
<path d="M348.709 505.756C348.709 505.756 347.941 502.155 346.415 501.593C345.941 501.468 345.439 501.505 344.988 501.699C344.537 501.892 344.164 502.23 343.927 502.66C343.927 502.66 343.571 499.219 341.381 498.187C339.191 497.155 337.551 499.265 337.551 499.265C337.551 499.265 335.865 494.896 332.872 494.896C329.879 494.896 328.354 501.283 328.354 501.283C328.354 501.283 326.588 499.38 324.776 500.458C322.964 501.536 322.953 505.756 322.953 505.756H348.709Z" fill="#37474F"/>
<path d="M158.139 505.756H134.894C134.894 505.756 135.663 502.476 137.188 502.247C137.656 502.2 138.127 502.298 138.537 502.528C138.947 502.757 139.277 503.108 139.481 503.531C139.481 503.531 139.413 498.944 142.291 498.187C145.169 497.43 147.578 501.444 147.578 501.444C148.092 500.799 148.739 500.272 149.475 499.9C150.211 499.528 151.019 499.319 151.844 499.288C154.309 499.437 154.928 503.244 154.928 503.244C154.928 503.244 157.153 501.926 158.139 505.756Z" fill="#455A64"/>
<path d="M327.941 505.756H304.696C304.696 505.756 305.464 502.476 306.99 502.247C307.457 502.2 307.928 502.298 308.339 502.528C308.749 502.757 309.079 503.108 309.283 503.531C309.283 503.531 309.214 498.944 312.093 498.187C314.971 497.43 317.391 501.444 317.391 501.444C317.905 500.799 318.552 500.272 319.288 499.9C320.025 499.528 320.832 499.319 321.657 499.288C324.111 499.437 324.742 503.244 324.742 503.244C324.742 503.244 326.955 501.926 327.941 505.756Z" fill="#455A64"/>
<path d="M560.001 505.756H545.712C545.712 505.756 545.712 503.634 547.157 503.072C547.536 502.905 547.96 502.866 548.363 502.961C548.767 503.056 549.129 503.28 549.393 503.6C549.393 503.6 549.966 499.701 552.581 499.701C555.196 499.701 556.446 503.072 556.446 503.072C556.668 502.75 556.979 502.499 557.342 502.35C557.704 502.202 558.102 502.162 558.487 502.235C559.943 502.43 560.001 505.756 560.001 505.756Z" fill="#455A64"/>
<path d="M385.268 505.756H370.968C370.968 505.756 370.968 503.634 372.401 503.072C372.788 502.893 373.223 502.847 373.638 502.942C374.054 503.038 374.426 503.269 374.695 503.6C374.695 503.6 375.268 499.701 377.883 499.701C380.497 499.701 381.747 503.072 381.747 503.072C381.97 502.75 382.281 502.499 382.643 502.35C383.006 502.202 383.404 502.162 383.788 502.235C385.21 502.43 385.268 505.756 385.268 505.756Z" fill="#455A64"/>
<path d="M326.083 567.509C323.411 568.369 247.163 567.395 244.284 565.514C243.138 564.814 242.667 553.702 242.45 540.285V539.861C242.392 537.086 242.358 534.23 242.346 531.34C242.346 530.939 242.346 530.549 242.346 530.194L246.039 490.642L297.047 491.135L292.024 530.32L291.956 531.879L291.657 539.987V540.824C291.657 540.824 320.682 554.241 323.629 556.649C326.576 559.058 328.755 566.649 326.083 567.509Z" fill="#DD6A57"/>
<path d="M326.083 567.509C323.411 568.369 247.163 567.395 244.284 565.514C243.138 564.814 242.667 553.702 242.45 540.285V539.861C242.392 537.086 242.358 534.23 242.346 531.34C242.346 530.939 242.346 530.549 242.346 530.194L292.024 530.32L291.956 531.879L291.657 539.987V540.824C291.657 540.824 320.682 554.241 323.629 556.649C326.576 559.058 328.755 566.649 326.083 567.509Z" fill="#EBEBEB"/>
<path d="M326.095 567.498C324.719 567.945 303.997 567.899 283.756 567.498C279.685 567.418 275.637 567.326 271.772 567.223C257.335 566.833 245.397 566.236 244.25 565.514C243.103 564.792 242.645 554.046 242.415 540.813C242.415 540.618 242.415 540.434 242.415 540.251C242.415 540.067 242.415 539.953 242.415 539.815H242.53L291.669 539.895V540.744C291.669 540.744 320.682 554.161 323.629 556.558C326.576 558.954 328.767 566.649 326.095 567.498Z" fill="#FF771A"/>
<path d="M325.258 564.539C312.414 564.058 260.546 563.335 247.805 563.84C247.702 563.84 247.702 563.92 247.805 563.92C260.523 564.677 312.402 564.975 325.258 564.746C325.533 564.746 325.533 564.551 325.258 564.539Z" fill="#263238"/>
<path d="M297.116 540.09C292.07 539.081 285.878 539.781 281.967 543.336C281.818 543.473 281.967 543.691 282.174 543.634C287.026 542.141 292.024 541.169 297.082 540.732C297.167 540.737 297.25 540.707 297.314 540.65C297.377 540.594 297.415 540.514 297.42 540.429C297.424 540.343 297.395 540.26 297.338 540.196C297.281 540.133 297.201 540.095 297.116 540.09Z" fill="#263238"/>
<path d="M300.74 542.384C295.694 541.375 289.501 542.074 285.591 545.629C285.43 545.767 285.591 545.973 285.797 545.927C290.65 544.434 295.647 543.461 300.705 543.026C300.79 543.03 300.874 543.001 300.937 542.944C301.001 542.887 301.039 542.807 301.044 542.722C301.048 542.637 301.019 542.553 300.962 542.49C300.905 542.426 300.825 542.388 300.74 542.384Z" fill="#263238"/>
<path d="M304.363 544.608C299.318 543.599 293.125 544.299 289.215 547.854C289.054 547.991 289.215 548.198 289.421 548.152C294.272 546.653 299.27 545.681 304.329 545.251C304.414 545.255 304.498 545.226 304.561 545.169C304.625 545.112 304.663 545.032 304.667 544.947C304.672 544.862 304.643 544.778 304.586 544.715C304.529 544.651 304.449 544.613 304.363 544.608Z" fill="#263238"/>
<path d="M283.813 567.498C279.742 567.418 275.694 567.326 271.83 567.223C257.392 566.833 245.454 566.236 244.307 565.514C243.161 564.792 242.702 554.046 242.473 540.813C242.473 540.618 242.473 540.434 242.473 540.251C242.473 540.067 242.473 539.953 242.473 539.815H242.53C249.238 544.54 272.965 560.331 283.813 567.498Z" fill="#263238"/>
<path d="M294.582 540.09H239.663C239.663 540.09 250.695 411.824 250.259 409.588C249.709 406.721 246.463 393.74 242.151 376.779C240.798 371.47 239.33 365.782 237.817 359.876C233.723 343.924 229.204 326.482 225.271 311.31C219.365 288.581 214.744 270.921 214.744 270.921H261.291C261.291 270.921 266.715 288.123 273.561 310.485C284.708 346.837 299.593 396.871 301.084 409.038C303.458 428.67 294.582 540.09 294.582 540.09Z" fill="#455A64"/>
<path d="M292.15 530.71C283.756 530.538 286.164 530.469 277.781 530.389C273.676 530.389 246.704 530.113 242.862 530.755C242.782 530.755 242.782 530.905 242.862 530.927C246.704 531.558 273.676 531.317 277.781 531.272C286.164 531.191 283.756 531.122 292.15 530.95C292.176 530.942 292.199 530.926 292.214 530.905C292.23 530.883 292.239 530.857 292.239 530.83C292.239 530.803 292.23 530.777 292.214 530.755C292.199 530.734 292.176 530.718 292.15 530.71Z" fill="#263238"/>
<path d="M260.591 401.744C258.791 393.809 256.096 386.034 253.711 378.236C248.94 362.41 244.147 346.589 239.33 330.771C236.937 322.858 234.522 314.953 232.083 307.056C230.86 303.065 229.625 299.078 228.379 295.095C227.152 291.196 225.764 287.331 224.663 283.398C224.216 281.804 223.964 282.676 224.537 284.717C225.684 288.811 226.831 292.905 228.035 296.987C230.405 305.083 232.79 313.172 235.191 321.253C239.953 337.308 244.758 353.381 249.605 369.474C252.021 377.532 254.445 385.586 256.876 393.637C258.105 397.471 259.097 401.377 259.846 405.334C260.497 409.467 260.663 413.662 260.339 417.833C259.812 426.239 258.837 434.622 258.046 443.005C257.254 451.388 256.497 459.805 255.752 468.234C254.223 484.938 252.694 501.654 251.165 518.382C250.966 520.5 250.787 522.621 250.626 524.746C250.569 525.457 251.647 525.4 251.715 524.746C253.527 508.222 254.903 491.639 256.452 475.08C258 458.521 259.536 442.133 261.039 425.666C261.417 421.526 261.864 417.386 261.864 413.223C261.875 409.361 261.448 405.51 260.591 401.744Z" fill="#263238"/>
<path d="M256.004 270.91C252.782 295.909 246.635 342.778 242.151 376.779C231.647 335.587 214.744 270.921 214.744 270.921L256.004 270.91Z" fill="#263238"/>
<path d="M266.922 568.255C264.25 569.126 188.001 568.438 185.111 566.557C183.965 565.869 183.46 554.757 183.185 541.329C183.185 541.18 183.185 541.042 183.185 540.904C183.185 538.129 183.082 535.274 183.059 532.384C183.059 531.983 183.059 531.593 183.059 531.237C182.875 511.822 184.274 491.674 184.274 491.674L234.113 491.995L232.725 531.18V532.739L232.45 540.847V541.684C232.45 541.684 261.52 554.998 264.479 557.395C267.438 559.792 269.594 567.395 266.922 568.255Z" fill="#DD6A57"/>
<path d="M266.922 568.255C264.25 569.126 188.001 568.438 185.111 566.557C183.965 565.869 183.46 554.757 183.185 541.329C183.185 541.179 183.185 541.042 183.185 540.904C183.185 538.129 183.082 535.274 183.059 532.384C183.059 531.982 183.059 531.593 183.059 531.237L232.725 531.18V532.739L232.45 540.847V541.684C232.45 541.684 261.52 554.998 264.479 557.395C267.438 559.792 269.594 567.395 266.922 568.255Z" fill="#EBEBEB"/>
<path d="M266.922 568.255C264.25 569.126 188.001 568.438 185.111 566.558C183.965 565.87 183.46 554.757 183.185 541.329C183.185 541.18 183.185 541.042 183.185 540.904L232.392 540.801V541.638C232.392 541.638 261.463 554.952 264.422 557.349C267.38 559.746 269.594 567.395 266.922 568.255Z" fill="#FF771A"/>
<path d="M266.084 565.319C253.229 564.895 201.361 564.356 188.62 564.906C188.517 564.906 188.517 564.986 188.62 564.986C201.349 565.697 253.229 565.812 266.084 565.537C266.348 565.491 266.36 565.319 266.084 565.319Z" fill="#263238"/>
<path d="M237.851 540.973C232.805 539.975 226.613 540.698 222.714 544.264C222.565 544.402 222.714 544.62 222.92 544.563C227.771 543.051 232.768 542.059 237.828 541.604C237.902 541.593 237.97 541.556 238.02 541.5C238.07 541.444 238.098 541.373 238.101 541.298C238.104 541.223 238.08 541.15 238.035 541.09C237.989 541.031 237.924 540.99 237.851 540.973Z" fill="#263238"/>
<path d="M241.486 543.198C236.429 542.212 230.237 542.934 226.338 546.501C226.188 546.638 226.395 546.856 226.555 546.799C231.405 545.285 236.403 544.293 241.463 543.84C241.549 543.843 241.631 543.812 241.694 543.754C241.756 543.696 241.793 543.616 241.796 543.53C241.799 543.445 241.768 543.362 241.71 543.3C241.652 543.238 241.571 543.201 241.486 543.198Z" fill="#263238"/>
<path d="M245.11 545.434C240.064 544.448 233.872 545.17 229.973 548.737C229.824 548.874 229.973 549.081 230.179 549.035C235.028 547.518 240.026 546.526 245.087 546.076C245.172 546.079 245.255 546.048 245.318 545.99C245.38 545.932 245.417 545.852 245.42 545.767C245.423 545.681 245.392 545.599 245.334 545.536C245.276 545.474 245.195 545.437 245.11 545.434Z" fill="#263238"/>
<path d="M259.789 270.91C259.789 270.91 258.711 293.18 253.619 310.817C253.218 312.274 252.77 313.707 252.289 315.083C247.621 316.965 243.133 319.268 238.883 321.964C238.883 321.964 238.344 339.876 237.817 359.807C237.232 382.146 236.67 407.065 236.739 412.34C237.22 432.111 234.296 540.778 234.296 540.778L179.458 541.122C179.458 541.122 189.354 419.726 189.286 412.478C189.171 400.838 191.923 349.406 194.056 311.872C195.352 288.753 196.418 270.921 196.418 270.921L259.789 270.91Z" fill="#455A64"/>
<path d="M232.415 531.122C224.033 530.985 226.441 530.905 218.046 530.87C213.941 530.87 186.969 530.733 183.139 531.386C183.059 531.386 183.059 531.535 183.139 531.558C186.981 532.177 213.952 531.822 218.058 531.753C226.441 531.639 224.033 531.581 232.415 531.375C232.449 531.375 232.481 531.361 232.505 531.338C232.528 531.314 232.542 531.282 232.542 531.249C232.542 531.215 232.528 531.183 232.505 531.159C232.481 531.136 232.449 531.122 232.415 531.122Z" fill="#263238"/>
<path d="M200.983 278.88C199.973 309.51 198.918 340.14 197.542 370.759C196.166 401.377 194.331 432.202 191.808 462.844C190.375 479.965 189.033 504.047 187.221 521.134C187.221 521.249 187.382 521.295 187.393 521.134C191.384 490.745 193.609 453.177 195.57 422.593C197.531 392.008 198.85 361.401 199.882 330.782C200.478 313.455 200.914 296.139 201.43 278.811C201.372 278.628 200.994 278.628 200.983 278.88Z" fill="#263238"/>
<path d="M254.571 313.753C249.112 316.036 243.863 318.791 238.883 321.987C238.688 322.101 238.883 322.411 239.044 322.308C244.342 319.728 249.754 317.251 254.892 314.384C254.967 314.336 255.021 314.263 255.044 314.177C255.067 314.092 255.058 314.001 255.018 313.922C254.978 313.844 254.91 313.783 254.827 313.751C254.745 313.72 254.653 313.72 254.571 313.753Z" fill="#263238"/>
<path d="M254.881 294.866C254.514 296.815 254.043 298.753 253.619 300.691C253.195 302.629 252.942 304.361 252.472 306.161C252.073 307.902 251.186 309.493 249.915 310.748C249.204 311.402 248.424 311.998 247.622 312.606L246.349 313.581L246.486 312.79C246.624 312.056 246.75 311.31 246.865 310.576C247.14 308.925 247.404 307.285 247.656 305.634C248.149 302.4 248.608 299.12 249.284 295.921C249.292 295.893 249.288 295.864 249.274 295.839C249.26 295.815 249.237 295.796 249.21 295.789C249.182 295.781 249.153 295.785 249.128 295.799C249.104 295.813 249.086 295.836 249.078 295.863C248.275 299.04 247.381 302.182 246.681 305.393C246.337 306.964 245.11 314.716 245.053 315.267C244.995 315.817 244.95 316.413 244.938 316.975C244.858 317.554 244.858 318.14 244.938 318.718C244.938 318.856 245.133 318.833 245.202 318.718C245.442 318.181 245.608 317.614 245.695 317.033C245.846 316.481 245.968 315.922 246.062 315.358C246.062 315.152 246.131 314.946 246.154 314.739C246.922 314.269 247.633 313.661 248.344 313.145C249.055 312.629 249.904 311.998 250.638 311.425C251.986 310.292 252.958 308.777 253.424 307.079C253.89 305.247 254.197 303.379 254.342 301.494C254.582 299.292 254.766 297.079 255.075 294.877C255.144 294.785 254.903 294.682 254.881 294.866Z" fill="#263238"/>
<path d="M240.018 213.48C243.057 221.966 253.78 241.002 270.224 255.99C276.589 261.781 323.939 257.974 328.629 256.151C331.909 254.866 338.033 231.002 334.581 228.846C328.113 224.798 285.786 234.133 283.985 233.181C281.233 231.713 263.011 219.5 251.268 207.895C242.702 199.432 234.961 199.352 240.018 213.48Z" fill="#DD6A57"/>
<path d="M252.186 238.559L279.043 227.895C279.043 227.895 254.961 207.173 246.131 203.079C236.211 198.491 236.028 204.546 239.514 214.34C243 224.133 252.186 238.559 252.186 238.559Z" fill="#37474F"/>
<path d="M273.366 224.626C272.38 224.844 263.963 228.067 262.151 228.778C260.339 229.489 252.874 232.436 251.062 233.365C251.044 233.365 251.026 233.372 251.013 233.385C251 233.398 250.993 233.415 250.993 233.433C250.993 233.452 251 233.469 251.013 233.482C251.026 233.495 251.044 233.502 251.062 233.502C253.011 232.952 260.534 230.062 262.403 229.305C264.273 228.548 272.529 225.245 273.389 224.718C273.493 224.729 273.493 224.615 273.366 224.626Z" fill="#263238"/>
<path d="M262.541 234.443L252.22 238.559C252.22 238.559 243.046 224.122 239.606 214.34C237.06 207.184 236.475 202.001 240.213 201.542L262.541 234.443Z" fill="#263238"/>
<path d="M190.237 295.152C190.409 295.347 266.36 295.84 267.071 295.072C268.045 293.925 251.176 211.622 243.413 201.427C241.75 199.248 231.28 196.278 225.202 201.232C212.29 211.748 201.12 247.837 198.483 258.731C194.171 276.689 189.607 294.441 190.237 295.152Z" fill="#FF771A"/>
<path opacity="0.1" d="M243.837 202.069H224.182C224.503 201.771 224.824 201.496 225.145 201.232C225.34 201.073 225.543 200.924 225.753 200.785H242.645C242.911 200.964 243.151 201.18 243.356 201.427C243.53 201.631 243.691 201.845 243.837 202.069Z" fill="black"/>
<path opacity="0.1" d="M245.672 205.762H220.844C221.2 205.315 221.555 204.879 221.922 204.466H245.11C245.294 204.868 245.477 205.303 245.672 205.762Z" fill="black"/>
<path opacity="0.1" d="M247.117 209.455H218.184C218.482 209.007 218.769 208.583 219.067 208.159H246.589L247.117 209.455Z" fill="black"/>
<path opacity="0.1" d="M248.344 213.136H215.925C216.177 212.7 216.429 212.264 216.693 211.84H247.92C248.069 212.264 248.264 212.7 248.344 213.136Z" fill="black"/>
<path opacity="0.1" d="M249.514 216.828H213.861C214.09 216.392 214.308 215.957 214.549 215.532H249.066C249.238 215.957 249.41 216.392 249.514 216.828Z" fill="black"/>
<path opacity="0.1" d="M250.557 220.521H212.06C212.267 220.085 212.473 219.649 212.691 219.225H250.225L250.557 220.521Z" fill="black"/>
<path opacity="0.1" d="M251.704 224.202H210.42L211.005 222.906H251.337C251.406 223.33 251.521 223.766 251.704 224.202Z" fill="black"/>
<path opacity="0.1" d="M252.644 227.895H208.769L209.32 226.599H252.3L252.644 227.895Z" fill="black"/>
<path opacity="0.1" d="M253.619 231.61H207.278C207.439 231.174 207.611 230.75 207.794 230.314H253.287C253.39 230.716 253.504 231.151 253.619 231.61Z" fill="black"/>
<path opacity="0.1" d="M254.559 235.268H205.833C205.994 234.832 206.154 234.408 206.326 233.972H254.215C254.342 234.408 254.456 234.832 254.559 235.268Z" fill="black"/>
<path opacity="0.1" d="M255.488 238.961H204.515C204.664 238.525 204.824 238.101 204.985 237.665H255.144C255.27 238.101 255.374 238.491 255.488 238.961Z" fill="black"/>
<path opacity="0.1" d="M256.383 242.642H203.242C203.379 242.218 203.528 241.782 203.689 241.358H256.073L256.383 242.642Z" fill="black"/>
<path opacity="0.1" d="M257.266 246.335H202.026L202.439 245.039H256.956L257.266 246.335Z" fill="black"/>
<path opacity="0.1" d="M258.126 250.027H200.879C201.005 249.603 201.132 249.167 201.269 248.731H257.839C257.931 249.167 258.034 249.603 258.126 250.027Z" fill="black"/>
<path opacity="0.1" d="M258.986 253.708H199.801L200.168 252.424H258.653C258.78 252.86 258.883 253.284 258.986 253.708Z" fill="black"/>
<path opacity="0.1" d="M259.812 257.401H198.804C198.907 256.999 199.022 256.564 199.136 256.105H259.525C259.617 256.541 259.731 256.965 259.812 257.401Z" fill="black"/>
<path opacity="0.1" d="M260.637 261.093H197.909L198.219 259.798H260.351C260.442 260.279 260.534 260.669 260.637 261.093Z" fill="black"/>
<path opacity="0.1" d="M261.44 264.775H197.015L197.324 263.49H261.165L261.44 264.775Z" fill="black"/>
<path opacity="0.1" d="M262.22 268.467H196.12L196.43 267.171H261.945C262.025 267.607 262.14 268.031 262.22 268.467Z" fill="black"/>
<path opacity="0.1" d="M263 272.16H195.226L195.535 270.864H262.736C262.828 271.3 262.919 271.747 263 272.16Z" fill="black"/>
<path opacity="0.1" d="M263.756 275.841H194.366L194.675 274.545H263.481C263.584 274.981 263.676 275.417 263.756 275.841Z" fill="black"/>
<path opacity="0.1" d="M264.502 279.533H193.402C193.517 279.109 193.62 278.673 193.723 278.238H264.215C264.318 278.627 264.422 279.109 264.502 279.533Z" fill="black"/>
<path opacity="0.1" d="M265.224 283.215H192.554C192.657 282.79 192.749 282.366 192.863 281.919H264.972C265.052 282.377 265.144 282.802 265.224 283.215Z" fill="black"/>
<path opacity="0.1" d="M265.912 286.907H191.694C191.785 286.483 191.889 286.058 191.992 285.611H265.672C265.752 286.058 265.832 286.483 265.912 286.907Z" fill="black"/>
<path opacity="0.1" d="M266.612 290.6H190.925C191.006 290.198 191.097 289.763 191.212 289.304H266.383C266.417 289.763 266.486 290.187 266.612 290.6Z" fill="black"/>
<path opacity="0.1" d="M267.082 294.292H190.249C190.249 293.948 190.352 293.512 190.444 292.996H266.956C267.002 293.535 267.048 293.96 267.082 294.292Z" fill="black"/>
<path d="M247.082 297.308L259.227 245.394L264.02 198.847L289.203 205.533L310.258 201.312L329.076 209.363L355.876 203.296L337.746 252.458L330.108 302.239L309.845 307.262L289.467 298.512L268.814 305.267L247.082 297.308Z" fill="#EBEBEB"/>
<path d="M268.814 305.267L289.203 205.533L310.258 201.312L289.467 298.512L268.814 305.267Z" fill="#DBDBDB"/>
<path d="M309.845 307.262L329.076 209.363L355.876 203.296L337.746 252.458L330.108 302.239L309.845 307.262Z" fill="#DBDBDB"/>
<path d="M350.83 225.544C351.668 230.475 355.337 237.355 354.764 241.025C354.652 241.935 354.251 242.786 353.619 243.451C352.987 244.115 352.158 244.56 351.255 244.718C351.255 244.718 354.305 247.493 353.227 250.738C352.677 252.412 349.512 253.032 349.512 253.032C350.169 253.697 350.63 254.531 350.844 255.441C351.059 256.351 351.018 257.303 350.727 258.192C349.821 260.486 346.794 260.692 346.794 260.692C346.794 260.692 348.009 263.972 346.347 265.967C342.987 270.027 322.93 264.362 321.92 256.094C321.45 252.24 326.267 253.892 326.267 253.892C326.267 253.892 319.902 249.844 320.969 245.669C322.035 241.495 328.17 244.03 328.17 244.03C328.17 244.03 322.035 240.05 323.583 235.842C325.131 231.633 330.9 235.039 330.9 235.039C330.9 235.039 327.287 230.761 329.214 227.803C332.368 222.929 340.601 232.482 345.269 232.688L347.665 225.635L350.83 225.544Z" fill="#DD6A57"/>
<path d="M352.619 232.86C352.229 228.112 355.853 227.126 356.759 222.642C357.768 217.631 351.61 217.275 347.757 225.349L345.269 232.654L352.619 232.86Z" fill="#DD6A57"/>
<path d="M346.324 260.761C346.339 260.761 346.353 260.767 346.364 260.778C346.375 260.788 346.381 260.803 346.381 260.818C346.381 260.833 346.375 260.848 346.364 260.859C346.353 260.869 346.339 260.876 346.324 260.876C338.99 260.628 331.904 258.161 326.003 253.8C325.82 253.651 326.003 253.295 326.209 253.41C332.523 256.821 339.299 259.297 346.324 260.761Z" fill="#263238"/>
<path d="M349.603 253.066C349.684 253.066 349.603 253.215 349.603 253.204C341.52 252.864 333.826 249.638 327.918 244.11C327.723 243.915 327.735 243.536 327.987 243.743C332.138 247.309 342.987 251.793 349.603 253.066Z" fill="#263238"/>
<path d="M330.59 234.454C336.427 239.798 343.376 242.734 350.957 244.775C351.048 244.775 350.957 244.947 350.957 244.947C346.977 244.947 342.287 243.204 338.744 241.507C335.428 240.006 332.565 237.661 330.441 234.706C330.326 234.534 330.464 234.339 330.59 234.454Z" fill="#263238"/>
<path d="M215.007 208.01C201.636 222.826 175.719 261.082 180.708 271.231C187.416 284.9 212.874 305.29 221.991 308.627C225.925 310.06 242.851 281.552 239.193 278.937C234.835 275.806 210.615 258.571 210.856 256.954C211.097 255.337 218.712 236.713 222.863 220.257C227.714 201.221 222.358 199.868 215.007 208.01Z" fill="#DD6A57"/>
<path d="M222.679 276.254C222.679 276.254 234.984 272.94 243.126 271.139C247.713 270.141 255.614 269.132 259.284 269.924C264.777 271.07 287.001 279.579 285.063 285.015C283.309 289.935 265.144 280.233 265.144 280.233C265.144 280.233 284.341 288.398 281.141 293.925C277.942 299.453 258.871 285.772 258.871 285.772C258.871 285.772 278.366 294.602 274.204 299.785C271.027 303.707 253.057 292.274 253.057 292.274C253.057 292.274 269.788 299.992 266.704 304.155C263.263 308.742 246.062 299.258 246.062 299.258C236.406 308.535 227.714 310.278 221.98 308.627C220.592 308.214 222.679 276.254 222.679 276.254Z" fill="#DD6A57"/>
<path d="M258.688 276.976C260.981 277.859 263.275 278.731 265.5 279.809C267.724 280.887 269.869 282.045 271.967 283.318C274.736 284.929 277.31 286.853 279.639 289.052C275.213 285.439 267.392 281.46 265.178 280.382C262.965 279.304 260.844 278.088 258.642 277.033C258.585 277.033 258.585 276.953 258.688 276.976Z" fill="#263238"/>
<path d="M254.64 284.866C257.518 286.116 260.374 287.24 263.24 288.616C266.107 289.992 268.596 291.529 271.268 293.088C271.486 293.214 271.348 293.283 271.13 293.168C268.367 291.724 265.695 290.6 262.919 289.178C260.144 287.756 257.403 286.242 254.582 284.935L254.64 284.866Z" fill="#263238"/>
<path d="M249.961 291.013C254.418 292.815 258.676 295.074 262.667 297.756C262.862 297.882 262.667 297.962 262.472 297.847C258.286 295.554 255.03 293.662 249.858 291.162C249.823 291.127 249.869 290.978 249.961 291.013Z" fill="#263238"/>
<path d="M217.496 240.325L189.148 234.672C189.148 234.672 209.113 209.936 217.037 204.317C225.959 197.998 227.243 203.939 225.581 214.202C223.918 224.466 217.496 240.325 217.496 240.325Z" fill="#37474F"/>
<path d="M217.748 235.371C216.796 235.027 207.978 233.193 206.051 232.837C204.125 232.482 196.269 230.956 194.251 230.75C194.233 230.75 194.215 230.757 194.202 230.77C194.189 230.783 194.182 230.801 194.182 230.819C194.182 230.837 194.189 230.855 194.202 230.867C194.215 230.88 194.233 230.888 194.251 230.888C196.189 231.461 204.113 233.032 206.063 233.433C208.012 233.835 216.785 235.463 217.771 235.509C217.817 235.509 217.817 235.394 217.748 235.371Z" fill="#263238"/>
<path d="M234.181 195.716C227.932 195.017 220.42 200.372 225.993 207.608C231.567 214.844 237.461 216.255 240.764 215.246C244.674 214.019 246.131 206.072 245.167 202.379C244.204 198.686 239.514 196.313 234.181 195.716Z" fill="#455A64"/>
<path d="M239.319 212.631C236.704 213.021 228.998 208.239 226.12 203.079C225.925 202.723 227.266 188.446 227.209 185.59C227.209 185.005 245.167 189.73 245.167 189.73C244.184 193.312 243.645 197.002 243.562 200.716C243.573 201.102 243.619 201.486 243.7 201.863C243.7 201.863 243.7 201.978 243.7 202.058C244.112 204.306 243.149 212.115 239.319 212.631Z" fill="#DD6A57"/>
<path d="M228.356 185.671C229.078 189.994 231.98 202.092 241.888 202.207C242.502 202.214 243.115 202.172 243.723 202.081V201.886C243.651 201.507 243.609 201.124 243.596 200.739C243.678 197.026 244.213 193.336 245.19 189.753C245.19 189.753 232.335 186.359 228.356 185.671Z" fill="#263238"/>
<path d="M253.47 157.919C253.47 157.919 258.883 161.531 258.78 167.724C258.676 173.916 256.085 179.925 255.511 180.132C254.938 180.338 253.47 157.919 253.47 157.919Z" fill="#263238"/>
<path d="M228.952 161.451C225.741 167.265 225.225 185.911 228.792 190.842C233.975 197.998 244.342 200.773 250.901 194.122C257.254 187.666 257.495 163.355 253.332 158.676C247.197 151.784 233.688 152.873 228.952 161.451Z" fill="#DD6A57"/>
<path d="M244.158 176.29C244.158 176.29 244.067 176.29 244.067 176.405C244.067 177.655 243.849 179.1 242.702 179.478V179.547C244.101 179.398 244.365 177.483 244.158 176.29Z" fill="#263238"/>
<path d="M243.08 174.948C241.073 174.73 240.787 178.767 242.645 178.973C244.502 179.18 244.823 175.132 243.08 174.948Z" fill="#263238"/>
<path d="M251.073 176.703C251.073 176.646 251.165 176.703 251.165 176.818C251.027 178.068 251.096 179.524 252.197 180.017C252.197 180.017 252.197 180.097 252.197 180.086C250.81 179.788 250.752 177.861 251.073 176.703Z" fill="#263238"/>
<path d="M252.289 175.476C254.307 175.476 254.181 179.512 252.289 179.524C250.397 179.535 250.557 175.476 252.289 175.476Z" fill="#263238"/>
<path d="M241.383 173.595C241.927 173.484 242.463 173.338 242.989 173.159C243.574 173.084 244.118 172.818 244.537 172.403C244.643 172.246 244.695 172.06 244.685 171.871C244.674 171.682 244.602 171.503 244.479 171.359C244.192 171.111 243.844 170.945 243.471 170.879C243.097 170.812 242.713 170.847 242.358 170.981C241.596 171.139 240.921 171.577 240.466 172.208C240.369 172.356 240.318 172.529 240.318 172.706C240.318 172.883 240.371 173.055 240.468 173.203C240.566 173.351 240.704 173.466 240.867 173.536C241.03 173.606 241.209 173.626 241.383 173.595Z" fill="#263238"/>
<path d="M253.998 172.655C253.464 172.508 252.94 172.332 252.426 172.127C251.847 172.016 251.319 171.718 250.924 171.279C250.825 171.116 250.783 170.926 250.804 170.737C250.825 170.549 250.907 170.372 251.039 170.235C251.342 170.007 251.7 169.864 252.077 169.819C252.454 169.775 252.836 169.831 253.183 169.983C253.931 170.188 254.576 170.661 254.995 171.313C255.086 171.467 255.13 171.644 255.121 171.823C255.112 172.001 255.05 172.173 254.943 172.316C254.837 172.46 254.69 172.568 254.522 172.629C254.353 172.689 254.171 172.698 253.998 172.655Z" fill="#263238"/>
<path d="M241.842 187.517C242.117 187.838 242.392 188.262 242.839 188.331C243.308 188.356 243.777 188.282 244.216 188.113C244.216 188.113 244.296 188.113 244.216 188.182C244.02 188.416 243.763 188.593 243.474 188.692C243.185 188.791 242.874 188.809 242.576 188.744C242.33 188.661 242.114 188.508 241.953 188.305C241.792 188.101 241.694 187.855 241.67 187.597C241.704 187.494 241.807 187.471 241.842 187.517Z" fill="#263238"/>
<path d="M247.117 185.613C246.536 186.263 245.797 186.753 244.972 187.035C244.522 187.184 244.035 187.184 243.585 187.035C242.599 186.703 242.645 185.785 242.885 185.017C243.019 184.615 243.2 184.23 243.424 183.87C244.436 184.833 245.731 185.445 247.117 185.613Z" fill="#263238"/>
<path d="M244.995 187.035C244.545 187.184 244.058 187.184 243.608 187.035C242.622 186.703 242.667 185.785 242.908 185.017C243.436 185.061 243.931 185.286 244.312 185.654C244.692 186.022 244.934 186.51 244.995 187.035Z" fill="#FF9CBD"/>
<path d="M226.727 178.996C228.952 179.742 231.681 173.056 232.461 170.487C233.149 168.194 234.055 160.992 234.181 160.499C234.308 160.006 243.803 167.127 249.491 165.602C255.179 164.077 259.055 159.089 259.192 156.726C259.33 154.364 252.438 148.206 246.383 147.759C240.328 147.311 231.934 154.846 231.934 154.846C232.955 153.752 233.887 152.579 234.72 151.336C234.629 151.061 230.684 152.483 229.893 155.316C229.893 155.316 230.753 151.875 230.454 151.749C230.156 151.623 227.014 154.616 227.679 156.91C227.679 156.91 224.09 159.88 223.689 163.217C223.287 166.554 224.113 178.136 226.727 178.996Z" fill="#263238"/>
<path d="M253.539 164.513C251.845 165.374 250.032 165.977 248.16 166.302C246.075 166.417 243.993 166.023 242.094 165.155C240.169 164.356 238.388 163.248 236.819 161.875C235.443 160.728 234.216 159.249 232.736 158.183C232.358 157.907 231.911 158.446 232.129 158.79C234.564 162.4 238.099 165.127 242.209 166.565C244.116 167.238 246.165 167.403 248.155 167.045C250.145 166.687 252.008 165.819 253.562 164.524C253.562 164.524 253.562 164.501 253.539 164.513Z" fill="#263238"/>
<path d="M240.741 182.964C239.716 182.797 238.759 182.346 237.978 181.661C237.196 180.977 236.623 180.088 236.322 179.094C236.021 178.1 236.006 177.041 236.276 176.039C236.547 175.036 237.094 174.13 237.854 173.423C238.614 172.715 239.558 172.236 240.577 172.038C241.597 171.84 242.651 171.932 243.621 172.303C244.59 172.675 245.436 173.311 246.062 174.14C246.689 174.968 247.07 175.955 247.163 176.99C247.287 178.456 246.826 179.912 245.881 181.04C244.936 182.168 243.583 182.876 242.117 183.01C241.658 183.053 241.196 183.037 240.741 182.964ZM242.404 172.735C242.023 172.693 241.638 172.693 241.257 172.735C240.038 172.881 238.921 173.487 238.134 174.43C237.347 175.372 236.949 176.579 237.022 177.804C237.096 179.03 237.634 180.181 238.528 181.023C239.421 181.865 240.603 182.334 241.83 182.334C243.058 182.334 244.239 181.865 245.133 181.023C246.027 180.181 246.565 179.03 246.638 177.804C246.711 176.579 246.314 175.372 245.527 174.43C244.74 173.487 243.623 172.881 242.404 172.735Z" fill="#FF771A"/>
<path d="M253.47 183.446C251.371 183.102 249.823 180.648 249.949 177.712C249.981 176.326 250.451 174.985 251.291 173.882C251.619 173.384 252.07 172.98 252.601 172.708C253.131 172.437 253.724 172.309 254.319 172.335C254.914 172.362 255.493 172.543 255.997 172.86C256.502 173.177 256.915 173.62 257.197 174.146C257.931 175.317 258.284 176.687 258.206 178.068C258.069 181.129 256.108 183.538 253.825 183.434L253.47 183.446ZM254.617 173.125H254.33C253.856 173.122 253.388 173.235 252.967 173.452C252.545 173.67 252.183 173.987 251.91 174.375C251.181 175.375 250.78 176.577 250.764 177.815C250.649 180.453 252.071 182.678 253.94 182.758C255.809 182.838 257.38 180.751 257.541 178.171C257.612 176.96 257.303 175.757 256.658 174.73C256.453 174.323 256.159 173.968 255.797 173.69C255.436 173.412 255.017 173.219 254.571 173.125H254.617Z" fill="#FF771A"/>
<path d="M246.945 177.632L246.498 177.035C247.369 176.37 249.353 175.499 250.638 177.035L250.076 177.517C248.929 176.141 247.025 177.563 246.945 177.632Z" fill="#FF771A"/>
<path d="M223.264 178.217L222.622 177.85C222.794 177.552 224.354 174.914 226.062 174.719C227.771 174.524 236.383 175.648 236.853 175.717L236.75 176.451C233.24 175.919 229.702 175.586 226.154 175.453C225.007 175.579 223.677 177.494 223.264 178.217Z" fill="#FF771A"/>
<path d="M229.686 176.898C229.686 176.898 226.727 170.292 223.803 171.244C220.879 172.196 222.335 181.221 225.214 182.964C225.569 183.218 225.973 183.397 226.399 183.491C226.826 183.584 227.268 183.59 227.697 183.507C228.126 183.424 228.534 183.255 228.895 183.01C229.257 182.765 229.565 182.449 229.801 182.081L229.686 176.898Z" fill="#DD6A57"/>
<path d="M224.285 173.813C224.285 173.813 224.216 173.87 224.285 173.893C226.292 175.189 227.06 177.425 227.461 179.627C227.376 179.385 227.239 179.163 227.06 178.979C226.882 178.794 226.665 178.65 226.425 178.558C226.185 178.465 225.928 178.426 225.671 178.442C225.415 178.458 225.165 178.53 224.938 178.652V178.79C225.343 178.742 225.753 178.819 226.112 179.012C226.471 179.205 226.762 179.504 226.945 179.868C227.239 180.485 227.47 181.131 227.633 181.795C227.702 182.012 228.069 181.967 228.035 181.795C228.631 178.962 227.209 174.662 224.285 173.813Z" fill="#263238"/>
<path d="M328.457 161.038C327.958 165.818 326.141 170.366 323.208 174.173C320.274 177.981 316.34 180.898 311.845 182.599C307.35 184.3 302.47 184.718 297.751 183.806C293.032 182.895 288.659 180.69 285.121 177.437L272.151 179.352L278.642 168.125C277.013 164.177 276.402 159.883 276.864 155.637C277.58 148.794 280.986 142.515 286.331 138.183C291.676 133.85 298.524 131.819 305.367 132.535C312.21 133.251 318.488 136.657 322.821 142.002C327.153 147.347 329.185 154.195 328.469 161.038H328.457Z" fill="white"/>
<path d="M328.457 161.038C327.959 165.817 326.149 170.365 323.228 174.18C322.503 175.131 321.718 176.035 320.877 176.886C320.014 177.709 319.098 178.475 318.136 179.18C316.221 180.616 314.114 181.774 311.875 182.62C309.638 183.506 307.286 184.066 304.891 184.283C303.694 184.398 302.49 184.421 301.29 184.352C300.086 184.327 298.885 184.205 297.701 183.985C292.924 183.125 288.481 180.953 284.868 177.712L285.178 177.815L272.208 179.799L271.268 179.948L271.749 179.111L278.206 167.873V168.32C276.685 164.601 276.038 160.583 276.315 156.575C276.591 152.567 277.783 148.676 279.8 145.201C281.822 141.742 284.602 138.786 287.93 136.555C291.251 134.354 295.028 132.934 298.976 132.402C302.925 131.869 306.943 132.238 310.728 133.481C314.479 134.752 317.896 136.848 320.728 139.616C323.55 142.372 325.711 145.731 327.05 149.441C328.388 153.151 328.869 157.116 328.457 161.038ZM328.457 161.038C328.865 157.134 328.372 153.189 327.017 149.505C325.662 145.821 323.48 142.497 320.64 139.788C317.799 137.079 314.375 135.058 310.631 133.879C306.887 132.7 302.923 132.395 299.042 132.988C295.196 133.564 291.533 135.012 288.332 137.22C285.161 139.445 282.512 142.332 280.568 145.683C278.659 149.047 277.534 152.798 277.277 156.657C277.04 160.515 277.663 164.377 279.1 167.964L279.203 168.194L279.077 168.4L272.541 179.604L272.082 178.916L285.063 177.093H285.247L285.373 177.219C288.838 180.463 293.139 182.675 297.792 183.606C298.952 183.849 300.13 183.994 301.313 184.042C302.496 184.128 303.685 184.128 304.868 184.042C307.221 183.857 309.537 183.344 311.749 182.517C313.988 181.711 316.095 180.574 317.999 179.145C318.959 178.438 319.874 177.672 320.739 176.852C321.581 176.006 322.37 175.11 323.102 174.168C326.065 170.37 327.918 165.825 328.457 161.038Z" fill="#263238"/>
<path d="M299.627 173.125L288.55 161.921L292.265 158.24L298.733 164.788L312.184 143.71L316.599 146.52L299.627 173.125Z" fill="#FF771A"/>
<rect x="1" y="1" width="709" height="709" rx="354.5" stroke="#BDBDBD" stroke-width="2" stroke-linecap="square" stroke-linejoin="bevel" stroke-dasharray="10 25"/>
</svg>
