<svg width="91" height="23" viewBox="0 0 91 23" fill="none" xmlns="http://www.w3.org/2000/svg">
<path d="M8.75977 1.06494L10.8149 7.45508L15.2959 1.44678C15.4456 1.24463 15.5579 1.11361 15.6328 1.05371C15.7077 0.993815 15.82 0.963867 15.9697 0.963867C16.1195 0.963867 16.3104 1.12484 16.5425 1.44678L20.7202 7.3877L22.7417 1.06494H29.1655L23.3032 18.5396C23.0487 19.2882 22.6182 19.6626 22.0117 19.6626C21.4053 19.6626 20.8625 19.3182 20.3833 18.6294L15.3633 11.3857L9.96143 18.6519C9.47477 19.2957 8.93197 19.6177 8.33301 19.6177C7.73405 19.6177 7.29606 19.2433 7.01904 18.4946L0.70752 1.06494H8.75977Z" fill="#FE7818"/>
<path d="M31.2993 8.09521C32.1304 8.09521 32.7181 7.70964 33.0625 6.93848C33.2048 6.59408 33.2909 6.20475 33.3208 5.77051H31.2993V1.04248H38.1274V5.56836C38.1274 8.21875 36.8771 9.90332 34.3765 10.6221C33.5155 10.8691 32.4897 10.9927 31.2993 10.9927V8.09521ZM54.5352 6.90479C54.0485 6.71761 53.5282 6.62402 52.9741 6.62402C51.8361 6.62402 50.8441 7.03955 49.998 7.87061C49.1595 8.69417 48.7402 9.68245 48.7402 10.8354C48.7402 11.6066 48.89 12.2093 49.1895 12.6436C49.4889 13.0778 49.897 13.2949 50.4136 13.2949C50.9302 13.2949 51.4992 13.1639 52.1206 12.9019C52.7495 12.6323 53.6704 12.0521 54.8833 11.1611V18.4722C53.2886 19.116 51.5928 19.438 49.7959 19.438C48.0065 19.438 46.3556 19.0936 44.8433 18.4048C42.4399 17.3042 40.8564 15.5822 40.0928 13.2388C39.8382 12.4377 39.7072 11.5542 39.6997 10.5884C39.6997 9.62256 39.8195 8.69792 40.0591 7.81445C40.2987 6.93099 40.6468 6.11491 41.1035 5.36621C42.0169 3.86133 43.2972 2.68213 44.9443 1.82861C46.599 0.975098 48.4932 0.552083 50.627 0.55957C52.2516 0.55957 53.5544 0.743001 54.5352 1.10986V6.90479ZM66.6416 9.03857C66.6416 8.37972 66.3346 8.05029 65.7207 8.05029C65.0169 8.11768 64.5602 8.48079 64.3506 9.13965C64.2458 9.4541 64.1709 9.82096 64.126 10.2402C64.0885 10.652 64.0286 11.0938 63.9463 11.5654L66.4058 11.0151L66.6191 9.29688L66.6416 9.03857ZM65.1255 14.1484C65.1255 14.1484 64.9196 14.1484 64.5078 14.1484C64.3132 14.1484 64.126 14.141 63.9463 14.126C63.9463 15.0169 64.4217 15.5036 65.3726 15.5859C65.6346 15.6084 65.8892 15.6196 66.1362 15.6196C66.7726 15.6196 67.57 15.4736 68.5283 15.1816C69.4941 14.8896 70.3589 14.4142 71.1226 13.7554L71.8188 17.248C70.1493 18.693 67.6261 19.4155 64.2495 19.4155C62.3104 19.4155 60.6445 18.8503 59.252 17.7197C57.7396 16.4844 56.9834 14.7736 56.9834 12.5874C56.9834 10.9403 57.4102 9.46159 58.2637 8.15137C59.0573 6.95345 60.1317 6.04378 61.4868 5.42236C62.842 4.80094 64.3057 4.49023 65.8779 4.49023C67.9144 4.49023 69.453 4.93571 70.4937 5.82666C71.5418 6.71761 72.0622 7.8182 72.0547 9.12842C72.0547 10.4386 71.4295 11.6029 70.1792 12.6211C68.9289 13.6393 67.2443 14.1484 65.1255 14.1484ZM90.686 10.1504C90.6785 12.2917 89.971 14.2008 88.5635 15.8779C87.5153 17.1283 86.089 18.0192 84.2847 18.5508C83.3488 18.8278 82.2856 18.9775 81.0952 19V22.6387H74.4243V5.04053H78.1079L79.6689 7.19678C81.346 5.40739 83.1092 4.5127 84.9585 4.5127C86.8078 4.5127 88.2228 5.04427 89.2036 6.10742C90.1919 7.17057 90.686 8.51823 90.686 10.1504ZM84.4531 9.24072C84.2959 9.18083 84.1012 9.15088 83.8691 9.15088C83.3975 9.15088 82.8883 9.42415 82.3418 9.9707C81.8027 10.5098 81.3872 11.1274 81.0952 11.8237V15.0469C81.2225 14.957 81.4097 14.8372 81.6567 14.6875C81.9113 14.5303 82.1883 14.3431 82.4878 14.126C84.2547 12.8682 85.1382 11.5879 85.1382 10.2852C85.1382 9.76107 84.9098 9.41292 84.4531 9.24072Z" fill="white"/>
</svg>
